<?xml version="1.0" encoding="UTF-8" standalone="no"?>
<svg
   version="1.1"
   width="2.5705874in"
   height="1.2638175in"
   viewBox="0 0 185.08248 90.994824"
   id="svg1"
   sodipodi:docname="C-path.svg"
   xml:space="preserve"
   inkscape:version="1.4.3 (0d15f75042, 2025-12-25)"
   xmlns:inkscape="http://www.inkscape.org/namespaces/inkscape"
   xmlns:sodipodi="http://sodipodi.sourceforge.net/DTD/sodipodi-0.dtd"
   xmlns="http://www.w3.org/2000/svg"
   xmlns:svg="http://www.w3.org/2000/svg"><defs
     id="defs1" /><sodipodi:namedview
     id="namedview1"
     pagecolor="#ffffff"
     bordercolor="#000000"
     borderopacity="0.25"
     inkscape:showpageshadow="2"
     inkscape:pageopacity="0.0"
     inkscape:pagecheckerboard="0"
     inkscape:deskcolor="#d1d1d1"
     inkscape:document-units="in"
     inkscape:zoom="3.5122193"
     inkscape:cx="89.686882"
     inkscape:cy="60.218335"
     inkscape:window-width="1920"
     inkscape:window-height="1200"
     inkscape:window-x="0"
     inkscape:window-y="0"
     inkscape:window-maximized="0"
     inkscape:current-layer="svg1" /><path
     id="path1"
     fill="none"
     stroke="black"
     stroke-width="0.992917"
     d="m 30.88017,59.3067 c -2.050206,31.263174 61.05832,29.787188 80.11728,30.282485 0,0 2.92602,-28.479603 2.92602,-28.479603 C 99.074401,67.61779 55.771263,70.302303 56.995415,49.787082 59.393957,23.179704 114.47086,7.4292459 134.74401,3.7937627 103.27434,0.28705689 34.463054,27.587852 30.88017,59.3067 Z M 116.63054,0.79226028 C 115.33672,0.32668068 30.27307,16.166292 22.131961,60.178424 19.395035,80.683737 58.776905,89.925988 73.775257,89.688245 58.737095,93.046362 -0.40040085,89.440597 0.6545595,61.367137 3.3019129,23.803778 79.438205,-0.17852271 116.63054,0.79226028 Z"
     style="fill:#13558d;fill-opacity:1;stroke:none;stroke-opacity:1" /><path
     id="path1-5"
     fill="none"
     stroke="#000000"
     stroke-width="1.01239"
     d="m 77.161854,34.633202 39.266796,0.946377 -2.18852,18.518118 C 89.930516,61.530857 47.576187,63.586835 77.161854,34.633202 Z m 3.685994,-4.773029 C 96.72807,14.257297 168.22057,-5.4184005 184.59112,2.4200661 185.54765,12.439313 175.51408,27.885127 175.51408,27.885127 l -25.58708,0.21602 -6.34633,62.253056 -25.75709,-1.016322 7.06435,-60.712111 z"
     style="fill:#ffba27;fill-opacity:1;stroke:none"
     sodipodi:nodetypes="cccccccccccc" /></svg>
